<svg width="41" height="41" viewBox="0 0 41 41" fill="none" xmlns="http://www.w3.org/2000/svg">
<circle cx="20.4668" cy="20.4668" r="19.4668" stroke="#16110E" stroke-width="2"/>
<mask id="path-2-inside-1_311_152" fill="white">
<path d="M18.8058 14.8178L19.6036 15.6182L14.9948 20.1682L28.6042 20.1682L28.6042 21.2811L14.9948 21.2811L19.6036 25.8311L18.8058 26.6316L12.8226 20.7247L18.8058 14.8178Z"/>
</mask>
<path d="M18.8058 14.8178L20.9306 12.6999L18.8229 10.5853L16.6982 12.6829L18.8058 14.8178ZM19.6036 15.6182L21.7113 17.7531L23.8564 15.6354L21.7284 13.5004L19.6036 15.6182ZM14.9948 20.1682L12.8872 18.0333L7.68594 23.1682L14.9948 23.1682L14.9948 20.1682ZM28.6042 20.1682L31.6042 20.1682L31.6042 17.1682L28.6042 17.1682L28.6042 20.1682ZM28.6042 21.2811L28.6042 24.2811L31.6042 24.2811L31.6042 21.2811L28.6042 21.2811ZM14.9948 21.2811L14.9948 18.2811L7.68594 18.2811L12.8872 23.416L14.9948 21.2811ZM19.6036 25.8311L21.7284 27.949L23.8564 25.814L21.7113 23.6963L19.6036 25.8311ZM18.8058 26.6316L16.6982 28.7665L18.8229 30.8641L20.9306 28.7494L18.8058 26.6316ZM12.8226 20.7247L10.7149 18.5898L8.55247 20.7247L10.7149 22.8596L12.8226 20.7247ZM16.681 16.9356L17.4788 17.7361L21.7284 13.5004L20.9306 12.6999L16.681 16.9356ZM17.496 13.4833L12.8872 18.0333L17.1025 22.3031L21.7113 17.7531L17.496 13.4833ZM14.9948 23.1682L28.6042 23.1682L28.6042 17.1682L14.9948 17.1682L14.9948 23.1682ZM25.6042 20.1682L25.6042 21.2811L31.6042 21.2811L31.6042 20.1682L25.6042 20.1682ZM28.6042 18.2811L14.9948 18.2811L14.9948 24.2811L28.6042 24.2811L28.6042 18.2811ZM12.8872 23.416L17.496 27.966L21.7113 23.6963L17.1025 19.1462L12.8872 23.416ZM17.4788 23.7133L16.681 24.5138L20.9306 28.7494L21.7284 27.949L17.4788 23.7133ZM20.9135 24.4967L14.9303 18.5898L10.7149 22.8596L16.6982 28.7665L20.9135 24.4967ZM14.9303 22.8596L20.9135 16.9527L16.6982 12.6829L10.7149 18.5898L14.9303 22.8596Z" fill="#16110E" mask="url(#path-2-inside-1_311_152)"/>
</svg>
