<svg width="42" height="41" viewBox="0 0 42 41" fill="none" xmlns="http://www.w3.org/2000/svg">
<circle cx="21.4004" cy="20.4668" r="19.4668" stroke="#16110E" stroke-width="2"/>
<mask id="path-2-inside-1_311_155" fill="white">
<path d="M23.5547 26.6091L22.7568 25.8087L27.3656 21.2586H13.7562V20.1458H27.3656L22.7568 15.5957L23.5547 14.7953L29.5379 20.7022L23.5547 26.6091Z"/>
</mask>
<path d="M23.5547 26.6091L21.4299 28.7269L23.5376 30.8416L25.6623 28.744L23.5547 26.6091ZM22.7568 25.8087L20.6492 23.6738L18.5041 25.7915L20.632 27.9265L22.7568 25.8087ZM27.3656 21.2586L29.4733 23.3935L34.6745 18.2586H27.3656V21.2586ZM13.7562 21.2586H10.7562V24.2586H13.7562V21.2586ZM13.7562 20.1458V17.1458H10.7562V20.1458H13.7562ZM27.3656 20.1458V23.1458H34.6745L29.4733 18.0109L27.3656 20.1458ZM22.7568 15.5957L20.632 13.4779L18.5041 15.6129L20.6492 17.7306L22.7568 15.5957ZM23.5547 14.7953L25.6623 12.6604L23.5376 10.5628L21.4299 12.6775L23.5547 14.7953ZM29.5379 20.7022L31.6455 22.8371L33.808 20.7022L31.6455 18.5673L29.5379 20.7022ZM25.6795 24.4913L24.8816 23.6908L20.632 27.9265L21.4299 28.7269L25.6795 24.4913ZM24.8645 27.9436L29.4733 23.3935L25.258 19.1237L20.6492 23.6738L24.8645 27.9436ZM27.3656 18.2586H13.7562V24.2586H27.3656V18.2586ZM16.7562 21.2586V20.1458H10.7562V21.2586H16.7562ZM13.7562 23.1458H27.3656V17.1458H13.7562V23.1458ZM29.4733 18.0109L24.8645 13.4608L20.6492 17.7306L25.258 22.2806L29.4733 18.0109ZM24.8816 17.7136L25.6795 16.9131L21.4299 12.6775L20.632 13.4779L24.8816 17.7136ZM21.447 16.9302L27.4302 22.8371L31.6455 18.5673L25.6623 12.6604L21.447 16.9302ZM27.4302 18.5673L21.447 24.4742L25.6623 28.744L31.6455 22.8371L27.4302 18.5673Z" fill="#16110E" mask="url(#path-2-inside-1_311_155)"/>
</svg>
