<svg width="48" height="49" viewBox="0 0 48 49" fill="none" xmlns="http://www.w3.org/2000/svg">
<path d="M19.4481 35.2757L19.448 35.2757C18.1763 35.2226 17.4631 35.0175 16.9742 34.8369L16.9734 34.8366C16.3269 34.5965 15.8517 34.3005 15.3631 33.8349L15.3621 33.8339C14.874 33.3661 14.5621 32.9086 14.3074 32.2836L14.3069 32.2824C14.1156 31.8093 13.8965 31.1198 13.8365 29.8915L19.4481 35.2757ZM19.4481 35.2757C20.7777 35.331 21.181 35.343 24.5201 35.3368C27.8604 35.331 28.2638 35.3173 29.593 35.2573L29.5932 35.2573C30.8636 35.1993 31.5767 34.9918 32.0649 34.8088L32.0651 34.8088C32.7112 34.5664 33.1851 34.2686 33.6716 33.8011L33.6723 33.8005C34.1593 33.3308 34.4692 32.8719 34.7216 32.2462L34.722 32.2454M19.4481 35.2757L34.722 32.2454M14.2779 17.7558L14.2783 17.7549C14.5308 17.1276 14.8409 16.6695 15.3272 16.2001L15.3275 16.1998C15.8151 15.7299 16.2894 15.4337 16.9344 15.1916L16.9346 15.1916C17.4237 15.0081 18.1362 14.801 19.4073 14.7431L19.4073 14.7431C20.7367 14.6826 21.1402 14.6698 24.479 14.6636C27.8184 14.6574 28.2226 14.6686 29.5524 14.7247L14.2779 17.7558ZM14.2779 17.7558C14.0887 18.2287 13.8722 18.9199 13.8174 20.1472C13.7593 21.4251 13.7472 21.814 13.7537 25.0197M14.2779 17.7558L13.7537 25.0197M33.6373 16.1663L33.6374 16.1664C34.1258 16.6341 34.4379 17.0909 34.6928 17.718C34.8858 18.1913 35.1028 18.882 35.1631 20.108C35.2265 21.3853 35.2407 21.7743 35.2467 24.9799L33.6373 16.1663ZM33.6373 16.1663C33.1481 15.6981 32.6724 15.4036 32.0262 15.1637M33.6373 16.1663L32.0262 15.1637M34.722 32.2454C34.9124 31.7708 35.127 31.0798 35.1827 29.8524L34.722 32.2454ZM19.3461 13.5826L19.3457 13.5826C18.0611 13.6408 17.2054 13.8367 16.4669 14.1145L16.4661 14.1148C15.703 14.4004 15.0663 14.7775 14.4266 15.3941L14.4265 15.3942C13.7862 16.011 13.3987 16.6208 13.1056 17.3488L13.1056 17.3488C12.8214 18.0543 12.6227 18.8704 12.5662 20.0989L19.3461 13.5826ZM19.3461 13.5826C20.6682 13.5216 21.085 13.5077 24.4768 13.5014C27.8694 13.4953 28.2862 13.5077 29.6083 13.564L29.6088 13.564C30.8936 13.6173 31.7499 13.8102 32.4901 14.0852L32.4908 14.0855C33.2549 14.3681 33.8932 14.7432 34.5357 15.3574C35.1778 15.9721 35.5675 16.5802 35.8635 17.3074L35.8636 17.3075M19.3461 13.5826L35.8636 17.3075M13.1363 32.6922L13.1366 32.6927C13.4322 33.4199 13.8223 34.0283 14.4648 34.6426L14.4649 34.6427C15.107 35.257 15.7453 35.6311 16.5103 35.9152C17.2501 36.1897 18.1068 36.3823 19.3919 36.4364L19.392 36.4364C20.7141 36.4923 21.131 36.5047 24.5224 36.4986C27.9152 36.4923 28.3323 36.478 29.6546 36.4178C30.9392 36.3588 31.7944 36.163 32.5341 35.8857C33.2978 35.5988 33.9345 35.2226 34.5738 34.606L34.5739 34.6059C35.2133 33.9895 35.6009 33.3793 35.894 32.6509L35.8941 32.6505C36.1784 31.9458 36.3778 31.1293 36.4334 29.9024L36.4334 29.9023C36.4912 28.6334 36.505 28.2336 36.4985 24.978C36.492 21.7221 36.4767 21.3231 36.4141 20.0554L13.1363 32.6922ZM13.1363 32.6922C12.8492 31.9883 12.647 31.173 12.5859 29.9457L13.1363 32.6922ZM35.8636 17.3075C36.1505 18.0122 36.3534 18.8273 36.4141 20.0553L35.8636 17.3075ZM13.7537 25.0197C13.7598 28.2262 13.7739 28.6149 13.8365 29.8915L13.7537 25.0197ZM32.0262 15.1637C31.5369 14.9819 30.8227 14.7778 29.5526 14.7247L32.0262 15.1637ZM19.8332 25.0083V25.0084L24.4917 21.0004L24.4909 20.5004C24.4908 20.5004 24.4908 20.5004 24.4908 20.5004C21.9336 20.5047 19.8286 22.5044 19.8332 25.0083ZM24.511 30.661C21.2236 30.6671 18.5881 28.1187 18.5818 25.0107C18.5755 21.9034 21.2008 19.3444 24.4882 19.3382C27.7765 19.3321 30.4124 21.882 30.4187 24.989C30.425 28.0968 27.799 30.6549 24.511 30.661ZM31.1607 19.5222C30.5895 19.5232 30.1602 19.084 30.1591 18.5845C30.1581 18.085 30.5855 17.6441 31.157 17.643C31.7285 17.6419 32.1579 18.0815 32.159 18.5811C32.1596 19.0805 31.7322 19.5211 31.1607 19.5222ZM12.5015 25.0219C12.495 21.766 12.5084 21.367 12.5662 20.0991L12.5859 29.9456C12.5229 28.6773 12.508 28.2776 12.5015 25.0219Z" fill="black" stroke="#16110E"/>
<path d="M47 24.5C47 37.4982 36.6832 48 24 48C11.3168 48 1 37.4982 1 24.5C1 11.5018 11.3168 1 24 1C36.6832 1 47 11.5018 47 24.5Z" stroke="#16110E" stroke-width="2"/>
</svg>
