<svg width="48" height="49" viewBox="0 0 48 49" fill="none" xmlns="http://www.w3.org/2000/svg">
<path d="M29.3767 13H18.623C14.9711 13 12 15.9712 12 19.6231V30.3769C12 34.0289 14.9711 37 18.623 37H29.3767C33.0289 37 36 34.0288 36 30.3769V19.6231C36.0001 15.9712 33.0289 13 29.3767 13ZM33.8707 30.3769C33.8707 32.8548 31.8548 34.8706 29.3769 34.8706H18.623C16.1452 34.8707 14.1294 32.8548 14.1294 30.3769V19.6231C14.1294 17.1454 16.1452 15.1294 18.623 15.1294H29.3767C31.8546 15.1294 33.8706 17.1454 33.8706 19.6231V30.3769H33.8707Z" fill="#16110E"/>
<path d="M24 18.8161C20.59 18.8161 17.8158 21.5903 17.8158 25.0003C17.8158 28.4102 20.59 31.1842 24 31.1842C27.41 31.1842 30.1842 28.4102 30.1842 25.0003C30.1842 21.5903 27.41 18.8161 24 18.8161ZM24 29.0546C21.7643 29.0546 19.9452 27.2359 19.9452 25.0001C19.9452 22.7643 21.7641 20.9453 24 20.9453C26.2359 20.9453 28.0548 22.7643 28.0548 25.0001C28.0548 27.2359 26.2357 29.0546 24 29.0546Z" fill="#16110E"/>
<path d="M30.4436 17.0105C30.0333 17.0105 29.6303 17.1766 29.3405 17.4676C29.0494 17.7572 28.882 18.1604 28.882 18.5721C28.882 18.9825 29.0495 19.3855 29.3405 19.6765C29.6301 19.9661 30.0333 20.1336 30.4436 20.1336C30.8552 20.1336 31.257 19.9661 31.548 19.6765C31.839 19.3855 32.0051 18.9823 32.0051 18.5721C32.0051 18.1604 31.839 17.7572 31.548 17.4676C31.2584 17.1766 30.8552 17.0105 30.4436 17.0105Z" fill="#16110E"/>
<path d="M47 24.5C47 37.4982 36.6832 48 24 48C11.3168 48 1 37.4982 1 24.5C1 11.5018 11.3168 1 24 1C36.6832 1 47 11.5018 47 24.5Z" stroke="#16110E" stroke-width="2"/>
</svg>
