<svg width="24" height="24" viewBox="0 0 24 24" fill="none" xmlns="http://www.w3.org/2000/svg">
<path d="M6.623 0.4H17.3767C20.808 0.4 23.6001 3.19213 23.6 6.62309V17.3769C23.6 20.8079 20.808 23.6 17.3767 23.6H6.623C3.19202 23.6 0.4 20.808 0.4 17.3769V6.6231C0.4 3.19211 3.19202 0.4 6.623 0.4ZM17.3769 22.2706C20.0757 22.2706 22.2707 20.0757 22.2707 17.3769L22.2706 6.6231C22.2706 3.92447 20.0755 1.7294 17.3767 1.7294H6.623C3.92427 1.7294 1.7294 3.9245 1.7294 6.6231V17.3769C1.7294 20.0757 3.92427 22.2707 6.623 22.2706H17.3769Z" stroke="#23160C" stroke-width="0.8"/>
<path d="M6.2158 12.0003C6.2158 8.81122 8.81091 6.2161 12 6.2161C15.1891 6.2161 17.7842 8.81122 17.7842 12.0003C17.7842 15.1893 15.1891 17.7842 12 17.7842C8.81089 17.7842 6.2158 15.1893 6.2158 12.0003ZM7.5452 12.0001C7.5452 14.4569 9.54343 16.4546 12 16.4546C14.4566 16.4546 16.4548 14.4569 16.4548 12.0001C16.4548 9.54339 14.4568 7.5453 12 7.5453C9.54318 7.5453 7.5452 9.54339 7.5452 12.0001Z" stroke="#23160C" stroke-width="0.8"/>
<path d="M17.6226 4.75117L17.6226 4.75117L17.6239 4.74986C17.8381 4.5348 18.1389 4.4105 18.4436 4.4105C18.7499 4.4105 19.0507 4.53498 19.2645 4.74976L19.2645 4.74976L19.2658 4.75112C19.4806 4.96486 19.6051 5.26569 19.6051 5.5721C19.6051 5.87647 19.481 6.17765 19.2655 6.39332C19.0488 6.60877 18.7484 6.7336 18.4436 6.7336C18.1396 6.7336 17.8381 6.6084 17.6233 6.39366C17.407 6.1773 17.282 5.87588 17.282 5.5721C17.282 5.26655 17.4072 4.96549 17.6226 4.75117Z" stroke="#23160C" stroke-width="0.8"/>
</svg>
