<svg width="22" height="26" viewBox="0 0 22 26" fill="none" xmlns="http://www.w3.org/2000/svg">
<path d="M20.628 6.57961L20.6265 6.57929C19.259 6.27797 18.0231 5.53525 17.0978 4.46221C16.1729 3.38951 15.6062 2.04245 15.4781 0.617996L15.4761 0.595643V0.5732V0.5H12.1283V17.7713V17.773C12.1253 18.6608 11.8522 19.5266 11.3458 20.249L11.3458 20.2491C10.8391 20.9716 10.1236 21.5149 9.29794 21.7998C8.4721 22.0849 7.57973 22.0963 6.74714 21.8324L6.74708 21.8324C5.91472 21.5685 5.18607 21.0435 4.66208 20.3339L4.66194 20.3337C4.12984 19.6124 3.83592 18.7372 3.82058 17.835C3.80523 16.9329 4.06918 16.0478 4.57605 15.3081L4.57606 15.3081C5.08317 14.5681 5.8077 14.0111 6.64673 13.7209L20.628 6.57961ZM20.628 6.57961C20.9158 6.6421 21.2071 6.68472 21.5 6.70726M20.628 6.57961L21.5 6.70726M21.5 6.70726V10.1633C19.624 10.0684 17.8087 9.42031 16.2725 8.28935L15.4761 7.70299V8.692V17.7726C15.4761 17.7726 15.4761 17.7726 15.4761 17.7726C15.476 19.3118 15.0306 20.8148 14.1981 22.0899C13.3658 23.3647 12.1851 24.3529 10.8084 24.9307C9.43192 25.5083 7.92027 25.6502 6.466 25.3389C5.01155 25.0274 3.67809 24.2763 2.63658 23.1789L21.5 6.70726ZM8.5815 13.5434C7.93508 13.4453 7.27188 13.5046 6.64675 13.7209L8.5815 13.5434ZM8.5815 13.5434V10.0721C7.17821 9.95688 5.76811 10.252 4.51487 10.9291C3.1334 11.6755 2.01035 12.8494 1.30512 14.289C0.599926 15.7286 0.348844 17.3606 0.588076 18.9558L0.0937459 19.03L0.588076 18.9559C0.827293 20.5511 1.54438 22.0274 2.63648 23.1788L8.5815 13.5434Z" stroke="#23160C"/>
</svg>
