<svg width="49" height="49" viewBox="0 0 49 49" fill="none" xmlns="http://www.w3.org/2000/svg">
<path d="M20.2679 23.3497C17.3265 23.4327 14.9971 25.8871 15.0408 28.8544C15.0694 30.7947 16.1152 32.49 17.6569 33.4246M20.2679 23.3497L20.1222 34.1902C20.1222 34.1902 20.1223 34.1902 20.1223 34.1902C19.2233 34.1404 18.383 33.8648 17.6569 33.4246M20.2679 23.3497V21.7564C18.3004 21.7949 16.4713 22.6384 15.1468 24.1424L15.1467 24.1425C14.1274 25.2998 13.5147 26.7785 13.4204 28.328L20.2679 23.3497ZM17.6569 33.4246L18.3813 32.2297L17.6569 33.4246ZM25.8035 28.7733C25.8035 31.1656 24.2656 33.2028 22.1192 33.9215L25.8035 28.7733ZM25.8035 28.7733L25.8035 28.7744L24.3997 28.7733H25.8035ZM34.1844 18.0798C32.8678 17.8518 31.6577 17.3065 30.6365 16.5256L34.1844 18.0798ZM34.1844 18.0798V19.7107C33.3684 19.5913 32.5735 19.3669 31.8071 19.0392C31.0349 18.7087 30.316 18.2832 29.6584 17.7689L27.3812 15.9877L27.3878 18.8787L27.4105 28.8061C27.4017 30.6717 26.676 32.4167 25.3591 33.736L25.359 33.7362C24.2851 34.8124 22.9313 35.4918 21.4646 35.7121C21.1181 35.7641 20.7654 35.7909 20.4089 35.7909C18.8316 35.7909 17.3414 35.2744 16.1208 34.3229C15.8903 34.143 15.6694 33.9476 15.4588 33.7366L34.1844 18.0798ZM25.8088 11.3844H27.5109C27.5199 11.4352 27.5294 11.4859 27.5394 11.5365C27.9375 13.5643 29.0653 15.3244 30.6363 16.5254L25.8088 11.3844ZM15.4587 33.7365C14.0313 32.3063 13.2961 30.3742 13.4203 28.3282L15.4587 33.7365Z" fill="black" stroke="#16110E" stroke-width="2.81"/>
<circle cx="24.5" cy="24.5" r="23.5" stroke="#16110E" stroke-width="2"/>
</svg>
