<svg width="49" height="49" viewBox="0 0 49 49" fill="none" xmlns="http://www.w3.org/2000/svg">
<path d="M34.6191 16.5595C33.2441 16.2605 31.999 15.5228 31.0653 14.4539C30.1316 13.385 29.5582 12.0408 29.4285 10.6173V10H24.6854V29.1383C24.6825 29.9856 24.4185 30.8106 23.9306 31.4975C23.4427 32.1844 22.7554 32.6985 21.9652 32.9678C21.175 33.237 20.3218 33.2478 19.5253 32.9985C18.7288 32.7493 18.0292 32.2526 17.5247 31.5782C17.0123 30.8925 16.7281 30.0588 16.7133 29.1978C16.6984 28.3369 16.9537 27.4935 17.442 26.79C17.9304 26.0865 18.6264 25.5594 19.4293 25.2852C20.2321 25.011 21.1 25.0039 21.907 25.265V20.3656C20.1074 20.1127 18.2749 20.438 16.666 21.2961C15.0571 22.1541 13.7523 23.502 12.934 25.1512C12.1157 26.8004 11.8248 28.6684 12.1021 30.4939C12.3794 32.3194 13.211 34.0112 14.4806 35.3325C15.6913 36.592 17.2436 37.4561 18.9396 37.8145C20.6355 38.173 22.398 38.0095 24.0021 37.3449C25.6062 36.6803 26.9791 35.5449 27.9456 34.0834C28.9121 32.6219 29.4284 30.9008 29.4285 29.1397V19.3606C31.3454 20.7539 33.6437 21.501 36 21.4967V16.7051C35.536 16.7057 35.0731 16.6569 34.6191 16.5595Z" fill="#16110E"/>
<circle cx="24.5" cy="24.5" r="23.5" stroke="#16110E" stroke-width="2"/>
</svg>
