<svg width="49" height="49" viewBox="0 0 49 49" fill="none" xmlns="http://www.w3.org/2000/svg">
<path d="M33.7341 17.091C32.4738 16.8133 31.3324 16.1283 30.4765 15.1357C29.6207 14.1432 29.095 12.895 28.9761 11.5732V11H24.6283V28.7713C24.6256 29.558 24.3836 30.3241 23.9364 30.962C23.4891 31.5998 22.8591 32.0772 22.1348 32.3272C21.4105 32.5772 20.6283 32.5872 19.8982 32.3558C19.1681 32.1243 18.5267 31.6631 18.0643 31.0369C17.5946 30.4002 17.3341 29.626 17.3205 28.8265C17.3069 28.0271 17.5409 27.2439 17.9885 26.5907C18.4362 25.9374 19.0742 25.448 19.8102 25.1934C20.5461 24.9388 21.3417 24.9322 22.0815 25.1746V20.6252C20.4317 20.3904 18.752 20.6924 17.2772 21.4892C15.8024 22.286 14.6063 23.5376 13.8561 25.069C13.106 26.6003 12.8394 28.3349 13.0936 30.03C13.3478 31.7252 14.1101 33.2961 15.2738 34.523C16.3837 35.6925 17.8067 36.4949 19.3613 36.8278C20.9158 37.1606 22.5315 37.0088 24.0019 36.3917C25.4723 35.7746 26.7308 34.7202 27.6168 33.3632C28.5028 32.0061 28.976 30.4079 28.9761 28.7726V19.692C30.7333 20.9857 32.84 21.6795 35 21.6755V17.2262C34.5746 17.2267 34.1504 17.1814 33.7341 17.091Z" fill="#16110E"/>
<circle cx="24.5" cy="24.5" r="23.5" stroke="#16110E" stroke-width="2"/>
</svg>
