<svg width="25" height="18" viewBox="0 0 25 18" fill="none" xmlns="http://www.w3.org/2000/svg">
<path d="M23.1048 2.8513C23.331 3.7355 23.4608 5.2073 23.5274 6.5541C23.5597 7.2072 23.5759 7.7985 23.584 8.2267C23.5881 8.4404 23.5901 8.6127 23.5911 8.7308C23.5916 8.7899 23.5918 8.8353 23.5919 8.8656L23.5921 8.8993V8.9073V8.9089V8.9108V8.9188L23.5919 8.9525C23.5918 8.9828 23.5916 9.0282 23.5911 9.0873C23.5901 9.2054 23.5881 9.3777 23.584 9.5915C23.5759 10.0196 23.5597 10.6109 23.5274 11.2641C23.4608 12.6108 23.3312 14.0818 23.105 14.966C22.9308 15.6488 22.4266 16.1502 21.8415 16.314L21.8405 16.3143C21.4973 16.4106 20.7613 16.5085 19.7269 16.5876C18.7337 16.6635 17.5787 16.7148 16.4717 16.7493C15.367 16.7837 14.322 16.8009 13.5524 16.8095C13.1679 16.8139 12.8528 16.816 12.6343 16.8171C12.5251 16.8176 12.44 16.8179 12.3825 16.818L12.3173 16.8181H12.301H12.2971H12.296H12.295H12.291H12.2748L12.2096 16.818C12.1521 16.8179 12.067 16.8176 11.9577 16.8171C11.7392 16.816 11.4242 16.8139 11.0397 16.8095C10.27 16.8009 9.225 16.7837 8.1204 16.7493C7.0134 16.7148 5.8584 16.6635 4.8651 16.5876C3.8308 16.5085 3.0947 16.4106 2.7516 16.3143L2.7506 16.314C2.1655 16.1502 1.6615 15.6496 1.4873 14.9668C1.2611 14.0826 1.1313 12.6108 1.0647 11.2641C1.0324 10.6109 1.0161 10.0196 1.008 9.5915C1.004 9.3777 1.002 9.2054 1.001 9.0873C1.0005 9.0282 1.0002 8.9828 1.0001 8.9525L1 8.9188V8.9108V8.9092V8.9073V8.8993L1.0001 8.8656C1.0002 8.8353 1.0005 8.7899 1.001 8.7308C1.002 8.6127 1.004 8.4404 1.008 8.2267C1.0161 7.7985 1.0324 7.2072 1.0647 6.5541C1.1313 5.2073 1.2609 3.7364 1.4871 2.8522C1.6613 2.1694 2.1655 1.668 2.7506 1.5041L2.7516 1.5038C3.0947 1.4075 3.8308 1.3096 4.8651 1.2305C5.8584 1.1546 7.0134 1.1033 8.1204 1.0688C9.225 1.0344 10.27 1.0172 11.0397 1.0086C11.4242 1.0043 11.7392 1.0021 11.9577 1.001C12.067 1.0005 12.1521 1.0002 12.2096 1.0001L12.2748 1H12.291H12.295H12.296H12.2971H12.301H12.3173L12.3825 1.0001C12.44 1.0002 12.5251 1.0005 12.6343 1.001C12.8528 1.0021 13.1679 1.0043 13.5524 1.0086C14.322 1.0172 15.367 1.0344 16.4717 1.0688C17.5787 1.1033 18.7337 1.1546 19.7269 1.2305C20.7613 1.3096 21.4973 1.4075 21.8405 1.5038L21.8415 1.5041C22.4266 1.668 22.9306 2.1685 23.1048 2.8513ZM8.3508 12.9008V15.3927L10.483 14.103L17.0824 10.1112L19.07 8.9091L17.0824 7.7069L10.483 3.7151L8.3508 2.4255V4.9173V12.9008Z" stroke="#23160C"/>
</svg>
