<svg width="49" height="49" viewBox="0 0 49 49" fill="none" xmlns="http://www.w3.org/2000/svg">
<path d="M34.5102 18.679L34.5104 18.6799C34.7366 19.5641 34.8662 21.035 34.9328 22.3818C34.9651 23.0349 34.9813 23.6262 34.9894 24.0544C34.9935 24.2681 34.9955 24.4404 34.9965 24.5585C34.997 24.6176 34.9972 24.663 34.9973 24.6933L34.9975 24.727L34.9975 24.735V24.7366V24.7366V24.7368V24.7369V24.7369V24.7385L34.9975 24.7465L34.9973 24.7802C34.9972 24.8105 34.997 24.8559 34.9965 24.915C34.9955 25.0331 34.9935 25.2054 34.9894 25.4192C34.9813 25.8473 34.9651 26.4386 34.9328 27.0918C34.8662 28.4385 34.7366 29.9095 34.5104 30.7937L34.5102 30.7945C34.336 31.4773 33.832 31.9779 33.2469 32.1417L33.2459 32.142C32.9027 32.2383 32.1667 32.3362 31.1323 32.4153C30.1391 32.4912 28.9841 32.5425 27.8771 32.577C26.7724 32.6114 25.7274 32.6286 24.9578 32.6372C24.5733 32.6416 24.2582 32.6437 24.0397 32.6448C23.9305 32.6453 23.8454 32.6456 23.7879 32.6457L23.7227 32.6458L23.7064 32.6458L23.7025 32.6458H23.7016H23.7014H23.7013H23.7004L23.6964 32.6458L23.6802 32.6458L23.615 32.6457C23.5575 32.6456 23.4724 32.6453 23.3631 32.6448C23.1446 32.6437 22.8296 32.6416 22.4451 32.6372C21.6754 32.6286 20.6304 32.6114 19.5258 32.577C18.4188 32.5425 17.2638 32.4912 16.2705 32.4153C15.2362 32.3362 14.5001 32.2383 14.157 32.142L14.156 32.1417C13.5709 31.9779 13.0669 31.4773 12.8927 30.7945L12.8925 30.7937C12.6663 29.9095 12.5367 28.4385 12.4701 27.0918C12.4378 26.4386 12.4215 25.8473 12.4134 25.4192C12.4094 25.2054 12.4074 25.0331 12.4064 24.915C12.4059 24.8559 12.4056 24.8105 12.4055 24.7802L12.4054 24.7465L12.4054 24.7385L12.4054 24.7369V24.7369L12.4054 24.7366L12.4054 24.7366L12.4054 24.735L12.4054 24.727L12.4055 24.6933C12.4056 24.663 12.4059 24.6176 12.4064 24.5585C12.4074 24.4404 12.4094 24.2681 12.4134 24.0544C12.4215 23.6262 12.4378 23.0349 12.4701 22.3818C12.5367 21.035 12.6663 19.5641 12.8925 18.6799L12.8927 18.679C13.0669 17.9962 13.5709 17.4957 14.156 17.3318L14.157 17.3315C14.5001 17.2352 15.2362 17.1373 16.2705 17.0582C17.2638 16.9823 18.4188 16.931 19.5258 16.8965C20.6304 16.8621 21.6754 16.8449 22.4451 16.8363C22.8296 16.832 23.1446 16.8298 23.3631 16.8287C23.4724 16.8282 23.5575 16.8279 23.615 16.8278L23.6802 16.8277L23.6964 16.8277L23.7004 16.8277L23.7013 16.8277H23.7014H23.7016L23.7025 16.8277L23.7064 16.8277L23.7227 16.8277L23.7879 16.8278C23.8454 16.8279 23.9305 16.8282 24.0397 16.8287C24.2582 16.8298 24.5733 16.832 24.9578 16.8363C25.7274 16.8449 26.7724 16.8621 27.8771 16.8965C28.9841 16.931 30.1391 16.9823 31.1323 17.0582C32.1667 17.1373 32.9027 17.2352 33.2459 17.3315L33.2469 17.3318C33.832 17.4957 34.336 17.9962 34.5102 18.679ZM19.7562 28.7285V31.2204L21.8884 29.9307L28.4878 25.9389L30.4754 24.7368L28.4878 23.5346L21.8884 19.5428L19.7562 18.2532V20.745V28.7285Z" fill="#16110E" stroke="#16110E" stroke-width="2.81"/>
<circle cx="24.5" cy="24.5" r="23.5" stroke="#16110E" stroke-width="2"/>
</svg>
